<svg xmlns="http://www.w3.org/2000/svg" viewBox="0 0 64 64"><path fill="#44BBC7" d="M0 0h64v64H0z"/><path fill="#FFF" d="M17.62 28.45a35.95 35.95 0 0 1-5.77 4.7l-2.35-2.8c1.4-1.43 2.6-3.07 3.6-4.9s1.75-3.73 2.25-5.7L21.7 23c-1 1.9-2.36 3.72-4.08 5.45zM10.15 14.8h43.7v3.4h-43.7v-3.4zm13.33 32.65a29.82 29.82 0 0 0 9.07-5.38 25.26 25.26 0 0 0 6-7.98l5.25 1.4h-26V32h28.5v3.55c-2 3.67-4.78 6.83-8.33 9.48a42.86 42.86 0 0 1-12.22 6.27 65.05 65.05 0 0 1-14.8 3l-.55-3.75c5.13-.67 9.49-1.7 13.08-3.1zm14.17 4.13a33.69 33.69 0 0 1-10.55-6.83 31.19 31.19 0 0 1-6.9-9.9l3.65-.7a18.11 18.11 0 0 0 6.4 7.32c2.73 1.78 5.97 3.12 9.72 4.03s8.39 1.6 13.93 2.1l-2.65 7.35a48.52 48.52 0 0 1-13.6-3.37zm-14.4-21.83V15.9h7v13.85h-7zm13.8-14.55-8.95.8c-.17-1.3-.48-2.53-.93-3.67a24.48 24.48 0 0 0-1.67-3.42l3.8-1.05a20.6 20.6 0 0 1 7.75 7.34zm-3.3 14.55V15.9h7v13.85h-7zm9.45-7.5 2.9-1.85c3.87 2.27 6.75 4.85 8.65 7.75l-6 4.25a25.23 25.23 0 0 0-5.55-10.15z"/></svg>