<svg xmlns="http://www.w3.org/2000/svg" viewBox="0 0 64 64"><path fill="#44BBC7" d="M0 0h64v64H0z"/><path fill="#FFF" d="M16.14 46.37a29.5 29.5 0 0 0 5.69-8.06l5.04 3.33a29.97 29.97 0 0 1-7.31 7.59c-3 2.22-6.35 4.06-10.06 5.51l-1.3-2.6a30.49 30.49 0 0 0 7.94-5.77zm17.19-24.96.52 2.44a131.96 131.96 0 0 1-23.71 8.06l-1.4-5.2c8.34-.97 16.54-2.74 24.59-5.3zm-12.8-10.38a49.48 49.48 0 0 0 9.98-4.39l1.98 5.15a84.97 84.97 0 0 1-10.89 2.7A105.7 105.7 0 0 1 9.77 16l-.36-2.44a67.53 67.53 0 0 0 11.12-2.53zm-6.39 5.7 2.13.47a18.65 18.65 0 0 1-2.91 7.64L9.41 22.6a14.77 14.77 0 0 0 4.73-5.87zm-2.39 17.1h14.3v2.6h-14.3v-2.6zm6.18-17.05 1.82-.88a13.84 13.84 0 0 1 5.2 4.42l-3.8 2.24a14.42 14.42 0 0 0-3.22-5.78zm9.26 2.31c.55-1.72.94-3.48 1.14-5.28l5.15.94a23.2 23.2 0 0 1-2.44 4.68 19.49 19.49 0 0 1-3.59 4l-2.39.62a29.77 29.77 0 0 0 2.13-4.96zm1.61 9.75h5.93v26.52H28.8V28.84zM43 19.01h2.29c.52 0 .89-.13 1.12-.39.23-.26.34-.68.34-1.27v-6.14H35.3V8.93h16.07v9.05c0 1.08-.31 1.89-.94 2.44-.62.56-1.53.83-2.7.83h-4.16L43 19.01zm-5.72 10.61c-.9-1.04-1.35-2.53-1.35-4.47V14.33h4.73v9.78c0 .9.18 1.56.55 1.98.36.42.96.62 1.79.62h6.5c.55 0 .95-.11 1.2-.34.24-.22.36-.61.36-1.17v-2.03l2.13.52v4.16c0 1.01-.28 1.81-.83 2.42s-1.37.91-2.44.91h-8.58c-1.81 0-3.16-.52-4.06-1.56zm5.3 17.47a47.66 47.66 0 0 1-6.03-12.12l2.55-1.04a35.56 35.56 0 0 0 6.86 9.98 33.48 33.48 0 0 0 9.83 6.97l-4.84 4.47c-3.12-2-5.91-4.75-8.37-8.26zm2.94-9.88a21.19 21.19 0 0 0 2.63-4.52l4.73 3.43a23.12 23.12 0 0 1-4.11 3.87 22.24 22.24 0 0 1-5.1 2.89l-1.61-2.18a17.9 17.9 0 0 0 3.46-3.49z"/></svg>